<svg width="69" height="67" viewBox="0 0 69 67" fill="none" xmlns="http://www.w3.org/2000/svg">
<path d="M30.7688 38.5056C30.7688 43.4123 26.7911 47.39 21.8844 47.39C16.9777 47.39 13 43.4123 13 38.5056C13 35.9186 14.1057 33.5898 15.8703 31.9661C17.4526 30.5102 19.5647 29.6212 21.8844 29.6212C26.7911 29.6212 30.7688 33.5988 30.7688 38.5056Z" fill="#197BBD"/>
<path d="M56.4098 38.5056C56.4098 43.4123 52.4321 47.39 47.5254 47.39C42.6187 47.39 38.641 43.4123 38.641 38.5056C38.641 37.8788 38.7059 37.2672 38.8294 36.6771C39.6724 32.6475 43.2455 29.6212 47.5254 29.6212C52.4321 29.6212 56.4098 33.5988 56.4098 38.5056Z" fill="#197BBD"/>
<path d="M46.4324 27.8844C46.4324 32.356 43.1289 36.056 38.8294 36.6771C38.411 36.7375 37.9831 36.7688 37.548 36.7688C33.2356 36.7688 29.6408 33.6964 28.8332 29.6212C28.7219 29.0595 28.6636 28.4788 28.6636 27.8844C28.6636 27.1038 28.7642 26.3467 28.9533 25.6254C29.9527 21.8128 33.4218 19 37.548 19C42.4547 19 46.4324 22.9777 46.4324 27.8844Z" fill="#197BBD"/>
<path d="M30.7688 38.5056C30.7688 43.4123 26.7911 47.39 21.8844 47.39H47.5254C42.6187 47.39 38.641 43.4123 38.641 38.5056C38.641 37.8788 38.7059 37.2672 38.8294 36.6771C38.411 36.7375 37.9831 36.7688 37.548 36.7688C33.2356 36.7688 29.6408 33.6964 28.8332 29.6212H23.0379H21.8844C26.7911 29.6212 30.7688 33.5988 30.7688 38.5056Z" fill="#197BBD"/>
<path d="M28.8332 29.6212C28.7219 29.0595 28.6636 28.4788 28.6636 27.8844C28.6636 27.1038 28.7642 26.3467 28.9533 25.6254C28.2109 26.9573 25.9884 29.6212 23.0379 29.6212H28.8332Z" fill="#197BBD"/>
<circle cx="47.2619" cy="25.0471" r="8.01481" transform="rotate(-30 47.2619 25.0471)" fill="#FFC145"/>
<path d="M50.4974 25.2369C50.7834 25.7323 50.8576 26.2471 50.7199 26.7813C50.5822 27.3155 50.2862 27.7909 49.8319 28.2076L50.1774 28.806C50.274 28.9733 50.2959 29.1451 50.2433 29.3213C50.2008 29.5003 50.0959 29.6381 49.9286 29.7346C49.7677 29.8275 49.5992 29.8476 49.4229 29.795C49.2504 29.7487 49.1158 29.642 49.0192 29.4747L48.7072 28.9342C48.3412 29.1026 47.98 29.2125 47.6236 29.2639C47.2736 29.3115 46.8966 29.2975 46.4927 29.2219C46.2298 29.1678 46.0445 29.0474 45.9368 28.8608C45.8513 28.7129 45.8317 28.5526 45.878 28.3801C45.9205 28.2011 46.0189 28.067 46.1734 27.9779C46.2956 27.9073 46.4273 27.8828 46.5684 27.9043C46.8607 27.9499 47.1248 27.969 47.3607 27.9615C47.5928 27.9476 47.8244 27.8954 48.0553 27.805L46.9687 25.923C45.538 26.4316 44.518 26.1583 43.9088 25.1031C43.6005 24.5691 43.528 24.0276 43.6915 23.4785C43.8512 22.9231 44.1951 22.4414 44.7231 22.0336L44.5393 21.7151C44.4427 21.5478 44.4175 21.3779 44.4637 21.2054C44.5127 21.0227 44.6208 20.8831 44.7881 20.7865C44.9489 20.6936 45.1175 20.6735 45.2937 20.7262C45.4663 20.7724 45.6008 20.8792 45.6974 21.0465L45.9036 21.4036C46.5062 21.1843 47.0717 21.1237 47.6002 21.2218C47.8722 21.2621 48.064 21.3787 48.1754 21.5718C48.2609 21.7197 48.2823 21.8832 48.2398 22.0622C48.1936 22.2347 48.0965 22.3637 47.9485 22.4491C47.852 22.5049 47.7484 22.526 47.6378 22.5127C47.3519 22.4633 46.9985 22.4828 46.5778 22.5713L47.6086 24.3568C48.3182 24.1445 48.8981 24.1013 49.3484 24.2274C49.7949 24.3471 50.1779 24.6836 50.4974 25.2369ZM45.0198 24.3974C45.1424 24.6097 45.3102 24.7444 45.5234 24.8015C45.7328 24.8522 45.9917 24.84 46.3001 24.7649L45.3751 23.1628C45.141 23.3666 44.9954 23.575 44.9383 23.7881C44.8812 24.0013 44.9084 24.2043 45.0198 24.3974ZM49.1633 27.0495C49.3053 26.8646 49.3989 26.6775 49.4441 26.4884C49.4857 26.2929 49.4637 26.1211 49.3783 25.9731C49.2742 25.793 49.1336 25.6683 48.9564 25.599C48.7754 25.5233 48.5528 25.5018 48.2884 25.5343L49.1633 27.0495Z" fill="#404040"/>
</svg>
