<svg width="321" height="207" viewBox="0 0 321 207" fill="none" xmlns="http://www.w3.org/2000/svg">
<mask id="mask0_1_211" style="mask-type:alpha" maskUnits="userSpaceOnUse" x="0" y="0" width="321" height="207">
<rect x="0.440491" y="0.430969" width="320.425" height="206.172" rx="26" fill="url(#paint0_linear_1_211)"/>
</mask>
<g mask="url(#mask0_1_211)">
<path d="M25.5606 162.166C25.6037 162.166 25.6408 162.183 25.6719 162.217L25.9733 162.547C25.7628 162.796 25.5056 162.988 25.2017 163.125C24.9003 163.261 24.5366 163.329 24.1107 163.329C23.7375 163.329 23.3989 163.265 23.0951 163.135C22.7936 163.006 22.5352 162.826 22.3199 162.593C22.1069 162.361 21.9418 162.084 21.8246 161.761C21.7074 161.438 21.6487 161.083 21.6487 160.695C21.6487 160.307 21.7098 159.952 21.8318 159.629C21.9562 159.306 22.1297 159.029 22.3522 158.796C22.5747 158.564 22.8403 158.384 23.1489 158.255C23.4599 158.125 23.8033 158.061 24.1789 158.061C24.545 158.061 24.8704 158.121 25.1551 158.24C25.4398 158.36 25.6874 158.519 25.898 158.718L25.6468 159.073C25.63 159.099 25.6085 159.121 25.5822 159.137C25.5582 159.154 25.5259 159.163 25.4853 159.163C25.4398 159.163 25.386 159.14 25.3238 159.094C25.2639 159.049 25.1838 158.999 25.0833 158.944C24.9852 158.886 24.8632 158.835 24.7172 158.789C24.5713 158.744 24.3895 158.721 24.1717 158.721C23.9157 158.721 23.6812 158.767 23.4683 158.857C23.2554 158.946 23.0711 159.075 22.9156 159.245C22.7625 159.413 22.6429 159.62 22.5567 159.866C22.473 160.11 22.4311 160.386 22.4311 160.695C22.4311 161.008 22.4754 161.287 22.5639 161.531C22.6524 161.775 22.7745 161.982 22.93 162.152C23.0855 162.322 23.2685 162.451 23.4791 162.54C23.6896 162.628 23.9169 162.672 24.161 162.672C24.3093 162.672 24.4421 162.664 24.5593 162.647C24.679 162.628 24.7878 162.601 24.8859 162.565C24.9864 162.529 25.0809 162.483 25.1694 162.428C25.258 162.371 25.3453 162.303 25.4314 162.224C25.4506 162.207 25.4709 162.194 25.4924 162.184C25.514 162.172 25.5367 162.166 25.5606 162.166ZM28.5574 161.653C28.2727 161.663 28.0311 161.686 27.8325 161.721C27.6339 161.755 27.4724 161.8 27.348 161.858C27.2236 161.915 27.1339 161.983 27.0788 162.062C27.0238 162.139 26.9963 162.225 26.9963 162.321C26.9963 162.412 27.0106 162.491 27.0394 162.558C27.0705 162.622 27.1111 162.676 27.1614 162.719C27.214 162.76 27.275 162.79 27.3444 162.809C27.4138 162.828 27.4892 162.838 27.5705 162.838C27.6782 162.838 27.7763 162.827 27.8648 162.805C27.9557 162.784 28.0406 162.754 28.1196 162.716C28.1986 162.675 28.2739 162.626 28.3457 162.568C28.4175 162.511 28.4881 162.445 28.5574 162.371V161.653ZM26.5046 160.135C26.708 159.941 26.9281 159.797 27.165 159.701C27.4042 159.605 27.6662 159.557 27.9509 159.557C28.1591 159.557 28.3433 159.592 28.5036 159.661C28.6639 159.728 28.7991 159.823 28.9092 159.945C29.0192 160.067 29.1018 160.213 29.1568 160.383C29.2142 160.553 29.2429 160.74 29.2429 160.946V163.272H28.9307C28.8613 163.272 28.8087 163.261 28.7728 163.239C28.7369 163.216 28.7082 163.172 28.6866 163.11L28.6113 162.791C28.518 162.877 28.4259 162.954 28.3349 163.021C28.244 163.085 28.1483 163.141 28.0478 163.189C27.9497 163.235 27.8445 163.269 27.732 163.293C27.6196 163.317 27.4951 163.329 27.3588 163.329C27.2152 163.329 27.08 163.31 26.9532 163.272C26.8288 163.231 26.7199 163.17 26.6266 163.089C26.5333 163.007 26.4592 162.906 26.4041 162.784C26.3515 162.662 26.3252 162.519 26.3252 162.357C26.3252 162.213 26.3634 162.075 26.44 161.944C26.519 161.81 26.6458 161.69 26.8204 161.585C26.9975 161.48 27.2272 161.394 27.5095 161.327C27.7942 161.26 28.1435 161.221 28.5574 161.212V160.946C28.5574 160.671 28.4988 160.465 28.3816 160.329C28.2644 160.193 28.0921 160.124 27.8648 160.124C27.7117 160.124 27.5825 160.143 27.4772 160.182C27.3743 160.22 27.2846 160.263 27.208 160.311C27.1339 160.356 27.0681 160.398 27.0106 160.437C26.9556 160.475 26.8982 160.494 26.8384 160.494C26.7905 160.494 26.7487 160.481 26.7128 160.455C26.6793 160.428 26.6518 160.397 26.6302 160.361L26.5046 160.135ZM30.8401 160.325C30.9574 160.086 31.0985 159.898 31.2636 159.762C31.4287 159.625 31.6273 159.557 31.8594 159.557C31.9383 159.557 32.0125 159.567 32.0819 159.586C32.1537 159.603 32.2159 159.629 32.2685 159.665L32.2219 160.193C32.2051 160.257 32.1656 160.289 32.1034 160.289C32.0699 160.289 32.0197 160.283 31.9527 160.271C31.8857 160.257 31.8139 160.25 31.7374 160.25C31.6249 160.25 31.5256 160.267 31.4395 160.3C31.3534 160.331 31.2756 160.379 31.2062 160.444C31.1392 160.506 31.0794 160.584 31.0268 160.677C30.9741 160.768 30.9251 160.872 30.8796 160.989V163.272H30.1798V159.625H30.5817C30.6583 159.625 30.7097 159.64 30.7361 159.669C30.7648 159.695 30.7851 159.743 30.7971 159.812L30.8401 160.325ZM35.0329 160.508C34.9181 160.358 34.7936 160.252 34.6597 160.193C34.5281 160.133 34.3797 160.103 34.2146 160.103C33.894 160.103 33.6452 160.219 33.4682 160.451C33.2935 160.681 33.2062 161.017 33.2062 161.459C33.2062 161.691 33.2253 161.89 33.2636 162.055C33.3043 162.218 33.3617 162.352 33.4359 162.457C33.5124 162.56 33.6057 162.637 33.7158 162.687C33.8258 162.735 33.9503 162.759 34.089 162.759C34.2924 162.759 34.4683 162.713 34.6166 162.622C34.7649 162.531 34.9037 162.403 35.0329 162.238V160.508ZM35.7363 157.975V163.272H35.3128C35.2147 163.272 35.1537 163.225 35.1298 163.132L35.0688 162.712C34.9133 162.896 34.7362 163.044 34.5376 163.157C34.3415 163.267 34.1142 163.322 33.8558 163.322C33.6476 163.322 33.4586 163.281 33.2887 163.2C33.1212 163.119 32.9777 163 32.858 162.845C32.7384 162.687 32.6463 162.492 32.5817 162.26C32.5171 162.028 32.4848 161.761 32.4848 161.459C32.4848 161.189 32.5207 160.938 32.5925 160.706C32.6642 160.474 32.7683 160.273 32.9047 160.103C33.0411 159.933 33.2062 159.8 33.4 159.704C33.5938 159.606 33.8127 159.557 34.0567 159.557C34.2769 159.557 34.4635 159.593 34.6166 159.665C34.7721 159.737 34.9109 159.838 35.0329 159.97V157.975H35.7363ZM39.228 160.088C39.3811 159.933 39.5498 159.807 39.734 159.712C39.9206 159.616 40.1348 159.568 40.3764 159.568C40.5774 159.568 40.7532 159.602 40.904 159.669C41.0571 159.736 41.1851 159.83 41.288 159.952C41.3909 160.072 41.4686 160.216 41.5213 160.386C41.5739 160.556 41.6002 160.744 41.6002 160.95V163.272H40.8968V160.95C40.8968 160.689 40.837 160.487 40.7174 160.343C40.5977 160.197 40.4147 160.124 40.1683 160.124C39.9888 160.124 39.8201 160.167 39.6622 160.254C39.5067 160.337 39.362 160.452 39.228 160.598V163.272H38.5281V157.975H39.228V160.088ZM44.0986 159.568C44.3666 159.568 44.6082 159.612 44.8235 159.701C45.0413 159.787 45.2255 159.913 45.3762 160.078C45.5294 160.24 45.6466 160.438 45.7279 160.67C45.8093 160.9 45.85 161.158 45.85 161.445C45.85 161.732 45.8093 161.992 45.7279 162.224C45.6466 162.456 45.5294 162.653 45.3762 162.816C45.2255 162.979 45.0413 163.104 44.8235 163.193C44.6082 163.279 44.3666 163.322 44.0986 163.322C43.8282 163.322 43.5842 163.279 43.3665 163.193C43.1511 163.104 42.9669 162.979 42.8138 162.816C42.6606 162.653 42.5422 162.456 42.4585 162.224C42.3771 161.992 42.3364 161.732 42.3364 161.445C42.3364 161.158 42.3771 160.9 42.4585 160.67C42.5422 160.438 42.6606 160.24 42.8138 160.078C42.9669 159.913 43.1511 159.787 43.3665 159.701C43.5842 159.612 43.8282 159.568 44.0986 159.568ZM44.0986 162.777C44.4431 162.777 44.7003 162.66 44.8702 162.428C45.0401 162.196 45.125 161.87 45.125 161.449C45.125 161.028 45.0401 160.701 44.8702 160.469C44.7003 160.234 44.4431 160.117 44.0986 160.117C43.7493 160.117 43.4885 160.234 43.3162 160.469C43.1463 160.701 43.0614 161.028 43.0614 161.449C43.0614 161.87 43.1463 162.196 43.3162 162.428C43.4885 162.66 43.7493 162.777 44.0986 162.777ZM47.3489 157.975V163.272H46.6455V157.975H47.3489ZM50.6992 160.508C50.5844 160.358 50.4599 160.252 50.326 160.193C50.1944 160.133 50.046 160.103 49.8809 160.103C49.5603 160.103 49.3115 160.219 49.1345 160.451C48.9598 160.681 48.8725 161.017 48.8725 161.459C48.8725 161.691 48.8916 161.89 48.9299 162.055C48.9706 162.218 49.028 162.352 49.1022 162.457C49.1787 162.56 49.272 162.637 49.3821 162.687C49.4921 162.735 49.6166 162.759 49.7553 162.759C49.9587 162.759 50.1346 162.713 50.2829 162.622C50.4312 162.531 50.57 162.403 50.6992 162.238V160.508ZM51.4026 157.975V163.272H50.9791C50.881 163.272 50.82 163.225 50.7961 163.132L50.7351 162.712C50.5796 162.896 50.4025 163.044 50.2039 163.157C50.0077 163.267 49.7805 163.322 49.5221 163.322C49.3139 163.322 49.1249 163.281 48.955 163.2C48.7875 163.119 48.644 163 48.5243 162.845C48.4047 162.687 48.3126 162.492 48.248 162.26C48.1834 162.028 48.1511 161.761 48.1511 161.459C48.1511 161.189 48.187 160.938 48.2588 160.706C48.3305 160.474 48.4346 160.273 48.571 160.103C48.7074 159.933 48.8725 159.8 49.0663 159.704C49.2601 159.606 49.479 159.557 49.723 159.557C49.9431 159.557 50.1298 159.593 50.2829 159.665C50.4384 159.737 50.5772 159.838 50.6992 159.97V157.975H51.4026ZM54.7943 161.043C54.7943 160.904 54.7739 160.776 54.7333 160.659C54.695 160.542 54.6376 160.44 54.561 160.354C54.4844 160.268 54.3911 160.201 54.2811 160.153C54.171 160.105 54.0442 160.081 53.9007 160.081C53.6064 160.081 53.3743 160.166 53.2044 160.336C53.0369 160.506 52.9305 160.742 52.885 161.043H54.7943ZM55.3721 162.751C55.286 162.852 55.1867 162.939 55.0742 163.013C54.9618 163.085 54.8421 163.144 54.7153 163.189C54.5885 163.235 54.4569 163.268 54.3206 163.29C54.1866 163.311 54.0538 163.322 53.9222 163.322C53.671 163.322 53.4377 163.28 53.2224 163.196C53.0094 163.11 52.824 162.986 52.6661 162.823C52.5106 162.658 52.3885 162.455 52.3 162.213C52.2139 161.969 52.1708 161.689 52.1708 161.373C52.1708 161.12 52.2103 160.884 52.2892 160.666C52.3682 160.446 52.4807 160.255 52.6266 160.092C52.7749 159.929 52.9556 159.801 53.1685 159.708C53.3815 159.615 53.6207 159.568 53.8863 159.568C54.1088 159.568 54.3134 159.605 54.5 159.679C54.689 159.751 54.8517 159.856 54.9881 159.995C55.1245 160.134 55.2309 160.305 55.3075 160.508C55.3865 160.712 55.4259 160.944 55.4259 161.205C55.4259 161.312 55.414 161.385 55.39 161.424C55.3661 161.459 55.3219 161.477 55.2573 161.477H52.8671C52.8742 161.695 52.9053 161.885 52.9604 162.048C53.0154 162.208 53.0908 162.342 53.1865 162.45C53.2846 162.558 53.4006 162.638 53.5346 162.69C53.6686 162.743 53.8181 162.769 53.9832 162.769C54.1387 162.769 54.2727 162.751 54.3852 162.716C54.5 162.68 54.5981 162.641 54.6794 162.601C54.7632 162.558 54.8326 162.518 54.8876 162.482C54.945 162.446 54.9953 162.428 55.0383 162.428C55.0958 162.428 55.14 162.45 55.1711 162.493L55.3721 162.751ZM56.8385 160.325C56.9557 160.086 57.0969 159.898 57.262 159.762C57.4271 159.625 57.6256 159.557 57.8577 159.557C57.9367 159.557 58.0109 159.567 58.0802 159.586C58.152 159.603 58.2142 159.629 58.2669 159.665L58.2202 160.193C58.2035 160.257 58.164 160.289 58.1018 160.289C58.0683 160.289 58.018 160.283 57.951 160.271C57.884 160.257 57.8123 160.25 57.7357 160.25C57.6233 160.25 57.524 160.267 57.4378 160.3C57.3517 160.331 57.2739 160.379 57.2046 160.444C57.1376 160.506 57.0777 160.584 57.0251 160.677C56.9725 160.768 56.9234 160.872 56.878 160.989V163.272H56.1781V159.625H56.5801C56.6567 159.625 56.7081 159.64 56.7344 159.669C56.7631 159.695 56.7835 159.743 56.7954 159.812L56.8385 160.325Z" fill="white"/>
<path d="M213.788 180.244C213.788 209.101 190.396 232.494 161.539 232.494C132.683 232.494 109.29 209.101 109.29 180.244C109.29 165.03 115.793 151.335 126.17 141.786C135.476 133.224 147.897 127.995 161.539 127.995C190.396 127.995 213.788 151.388 213.788 180.244Z" fill="white" fill-opacity="0.12"/>
<path d="M213.788 180.244C213.788 209.101 190.396 232.494 161.539 232.494H312.334C283.477 232.494 260.085 209.101 260.085 180.244C260.085 176.558 260.466 172.962 261.192 169.491C258.732 169.847 256.216 170.031 253.657 170.031C228.296 170.031 207.155 151.962 202.405 127.995H168.323H161.539C190.396 127.995 213.788 151.388 213.788 180.244Z" fill="white" fill-opacity="0.12"/>
<path d="M202.405 127.995C201.751 124.692 201.407 121.277 201.407 117.782C201.407 113.191 202 108.739 203.111 104.497C198.745 112.33 185.675 127.995 168.323 127.995H202.405Z" fill="white" fill-opacity="0.12"/>
<path fill-rule="evenodd" clip-rule="evenodd" d="M312.334 232.494C341.19 232.494 364.583 209.101 364.583 180.244C364.583 151.388 341.19 127.995 312.334 127.995C309.775 127.995 307.259 128.179 304.798 128.535C300.344 149.823 282.934 166.351 261.192 169.491C260.466 172.962 260.085 176.558 260.085 180.244C260.085 209.101 283.477 232.494 312.334 232.494Z" fill="white" fill-opacity="0.12"/>
<path d="M304.798 128.535C300.344 149.823 282.934 166.351 261.192 169.491C265.646 148.203 283.057 131.675 304.798 128.535Z" fill="white" fill-opacity="0.12"/>
<path d="M305.906 117.782C305.906 88.9252 282.513 65.5324 253.657 65.5324C229.391 65.5324 208.989 82.0743 203.111 104.497C202 108.739 201.407 113.191 201.407 117.782C201.407 121.277 201.751 124.692 202.405 127.995C207.155 151.962 228.296 170.031 253.657 170.031C256.216 170.031 258.732 169.847 261.192 169.491C265.646 148.203 283.057 131.675 304.798 128.535C305.524 125.064 305.906 121.468 305.906 117.782Z" fill="white" fill-opacity="0.12"/>
</g>
<defs>
<linearGradient id="paint0_linear_1_211" x1="160.653" y1="0.430969" x2="160.653" y2="206.603" gradientUnits="userSpaceOnUse">
<stop stop-color="#197BBD"/>
<stop offset="1" stop-color="#3391D0"/>
</linearGradient>
</defs>
</svg>
