<svg width="31" height="31" viewBox="0 0 31 31" fill="none" xmlns="http://www.w3.org/2000/svg">
<rect width="30" height="30" transform="translate(0.299759 0.463165)" fill="none"/>
<path d="M15.3 17.7785C16.5785 17.7785 17.615 16.742 17.615 15.4635C17.615 14.185 16.5785 13.1486 15.3 13.1486C14.0215 13.1486 12.9851 14.185 12.9851 15.4635C12.9851 16.742 14.0215 17.7785 15.3 17.7785Z" stroke="#C7C7C7" stroke-width="2" stroke-linecap="round" stroke-linejoin="round"/>
<path d="M21.01 17.7783C20.9073 18.011 20.8766 18.2692 20.922 18.5195C20.9674 18.7698 21.0867 19.0008 21.2646 19.1827L21.3109 19.229C21.4544 19.3723 21.5683 19.5425 21.6459 19.7298C21.7236 19.9172 21.7636 20.118 21.7636 20.3208C21.7636 20.5236 21.7236 20.7245 21.6459 20.9118C21.5683 21.0992 21.4544 21.2694 21.3109 21.4127C21.1676 21.5562 20.9974 21.67 20.81 21.7477C20.6227 21.8254 20.4219 21.8653 20.2191 21.8653C20.0162 21.8653 19.8154 21.8254 19.6281 21.7477C19.4407 21.67 19.2705 21.5562 19.1272 21.4127L19.0809 21.3664C18.899 21.1885 18.668 21.0692 18.4177 21.0238C18.1674 20.9784 17.9092 21.009 17.6765 21.1118C17.4483 21.2096 17.2536 21.372 17.1165 21.579C16.9794 21.786 16.9058 22.0286 16.9048 22.2769V22.4081C16.9048 22.8174 16.7423 23.21 16.4528 23.4994C16.1634 23.7888 15.7709 23.9514 15.3616 23.9514C14.9523 23.9514 14.5597 23.7888 14.2703 23.4994C13.9809 23.21 13.8183 22.8174 13.8183 22.4081V22.3387C13.8123 22.0833 13.7296 21.8356 13.581 21.6278C13.4324 21.42 13.2247 21.2617 12.9849 21.1735C12.7522 21.0708 12.494 21.0401 12.2437 21.0855C11.9933 21.1309 11.7624 21.2502 11.5805 21.4281L11.5342 21.4744C11.3909 21.6179 11.2207 21.7318 11.0333 21.8094C10.846 21.8871 10.6451 21.9271 10.4423 21.9271C10.2395 21.9271 10.0387 21.8871 9.85134 21.8094C9.66399 21.7318 9.49378 21.6179 9.35045 21.4744C9.20696 21.3311 9.09313 21.1609 9.01547 20.9735C8.9378 20.7862 8.89783 20.5854 8.89783 20.3826C8.89783 20.1798 8.9378 19.9789 9.01547 19.7916C9.09313 19.6042 9.20696 19.434 9.35045 19.2907L9.39675 19.2444C9.57464 19.0625 9.69398 18.8315 9.73936 18.5812C9.78475 18.3309 9.75411 18.0727 9.65139 17.84C9.55358 17.6118 9.39116 17.4171 9.18414 17.28C8.97711 17.1429 8.73452 17.0693 8.48621 17.0684H8.35503C7.94573 17.0684 7.55319 16.9058 7.26376 16.6163C6.97434 16.3269 6.81174 15.9344 6.81174 15.5251C6.81174 15.1158 6.97434 14.7232 7.26376 14.4338C7.55319 14.1444 7.94573 13.9818 8.35503 13.9818H8.42448C8.67989 13.9758 8.9276 13.8931 9.1354 13.7445C9.34319 13.5959 9.50148 13.3882 9.58966 13.1484C9.69238 12.9157 9.72302 12.6575 9.67763 12.4072C9.63225 12.1569 9.51291 11.9259 9.33502 11.744L9.28872 11.6977C9.14523 11.5544 9.0314 11.3842 8.95374 11.1968C8.87607 11.0095 8.8361 10.8086 8.8361 10.6058C8.8361 10.403 8.87607 10.2022 8.95374 10.0148C9.0314 9.8275 9.14523 9.65729 9.28872 9.51396C9.43205 9.37047 9.60226 9.25664 9.78961 9.17897C9.97696 9.10131 10.1778 9.06133 10.3806 9.06133C10.5834 9.06133 10.7842 9.10131 10.9716 9.17897C11.1589 9.25664 11.3291 9.37047 11.4725 9.51396L11.5188 9.56026C11.7006 9.73815 11.9316 9.85748 12.1819 9.90287C12.4322 9.94826 12.6904 9.91762 12.9232 9.8149H12.9849C13.2131 9.71708 13.4078 9.55467 13.5449 9.34764C13.682 9.14062 13.7555 8.89802 13.7565 8.64972V8.51854C13.7565 8.10923 13.9191 7.71669 14.2086 7.42727C14.498 7.13785 14.8905 6.97525 15.2998 6.97525C15.7091 6.97525 16.1017 7.13785 16.3911 7.42727C16.6805 7.71669 16.8431 8.10923 16.8431 8.51854V8.58799C16.8441 8.83629 16.9177 9.07889 17.0548 9.28591C17.1919 9.49294 17.3865 9.65535 17.6148 9.75317C17.8475 9.85589 18.1057 9.88653 18.356 9.84114C18.6063 9.79575 18.8373 9.67642 19.0192 9.49853L19.0654 9.45223C19.2088 9.30874 19.379 9.19491 19.5663 9.11724C19.7537 9.03958 19.9545 8.9996 20.1573 8.9996C20.3601 8.9996 20.561 9.03958 20.7483 9.11724C20.9357 9.19491 21.1059 9.30874 21.2492 9.45223C21.3927 9.59556 21.5065 9.76576 21.5842 9.95312C21.6619 10.1405 21.7018 10.3413 21.7018 10.5441C21.7018 10.7469 21.6619 10.9477 21.5842 11.1351C21.5065 11.3224 21.3927 11.4926 21.2492 11.636L21.2029 11.6823C21.025 11.8641 20.9057 12.0951 20.8603 12.3454C20.8149 12.5958 20.8455 12.8539 20.9483 13.0867V13.1484C21.0461 13.3766 21.2085 13.5713 21.4155 13.7084C21.6225 13.8455 21.8651 13.9191 22.1134 13.92H22.2446C22.6539 13.92 23.0465 14.0826 23.3359 14.3721C23.6253 14.6615 23.7879 15.054 23.7879 15.4633C23.7879 15.8726 23.6253 16.2652 23.3359 16.5546C23.0465 16.844 22.6539 17.0066 22.2446 17.0066H22.1752C21.9269 17.0076 21.6843 17.0812 21.4772 17.2183C21.2702 17.3554 21.1078 17.55 21.01 17.7783V17.7783Z" stroke="#C7C7C7" stroke-width="2" stroke-linecap="round" stroke-linejoin="round"/>
</svg>
